<?xml version="1.0" standalone="no"?>
<!DOCTYPE svg PUBLIC "-//W3C//DTD SVG 20010904//EN"
 "http://www.w3.org/TR/2001/REC-SVG-20010904/DTD/svg10.dtd">
<svg version="1.0" xmlns="http://www.w3.org/2000/svg"
 width="148.000000pt" height="139.000000pt" viewBox="0 0 148.000000 139.000000"
 preserveAspectRatio="xMidYMid meet">

<g transform="translate(0.000000,139.000000) scale(0.100000,-0.100000)"
fill="#000000" stroke="none">
<path d="M187 960 c-17 -21 -64 -29 -52 -9 5 7 -5 8 -29 5 -20 -3 -52 -8 -71
-11 l-35 -6 0 -119 0 -120 99 0 c67 0 102 4 109 13 10 12 42 194 42 241 0 20
-5 26 -23 26 -12 0 -30 -9 -40 -20z"/>
<path d="M1356 914 c-9 -22 17 -49 39 -40 10 3 15 15 13 28 -4 29 -42 37 -52
12z"/>
<path d="M315 895 c-14 -13 -25 -33 -25 -44 0 -30 40 -69 84 -84 47 -16 69
-43 46 -57 -24 -15 -58 -12 -72 8 -33 46 -73 27 -49 -24 10 -22 51 -40 89 -37
6 0 21 1 32 2 49 3 80 81 44 112 -9 8 -39 25 -67 39 -58 28 -67 44 -37 60 26
14 57 5 65 -21 7 -22 55 -27 55 -5 0 69 -113 104 -165 51z"/>
<path d="M520 790 l0 -130 25 0 c24 0 25 2 25 69 0 54 3 70 16 75 31 12 44
-13 44 -80 0 -62 1 -64 25 -64 25 0 25 1 25 78 0 95 -16 118 -75 109 l-35 -6
0 40 c0 35 -3 39 -25 39 l-25 0 0 -130z"/>
<path d="M746 829 c-22 -18 -26 -28 -26 -74 0 -56 13 -79 55 -95 59 -23 115
24 115 97 0 82 -80 122 -144 72z m82 -31 c16 -16 16 -70 0 -86 -17 -17 -45
-15 -52 4 -16 42 0 94 29 94 6 0 16 -5 23 -12z"/>
<path d="M930 720 l0 -130 25 0 c22 0 25 4 25 40 0 38 1 39 25 30 81 -31 140
105 74 171 -21 21 -69 25 -87 7 -9 -9 -12 -9 -12 0 0 7 -11 12 -25 12 l-25 0
0 -130z m109 76 c17 -21 9 -77 -12 -90 -26 -16 -50 18 -42 59 8 42 33 56 54
31z"/>
<path d="M1140 719 l0 -129 28 0 c26 0 28 2 26 39 l-2 38 42 -4 c58 -7 81 20
81 94 0 74 -21 92 -110 91 l-65 0 0 -129z m106 83 c36 -23 20 -106 -19 -100
-18 2 -23 10 -25 41 -4 50 16 78 44 59z"/>
<path d="M1360 755 c0 -95 0 -95 25 -95 25 0 25 0 25 95 0 95 0 95 -25 95 -25
0 -25 0 -25 -95z"/>
<path d="M1450 755 c0 -78 3 -95 15 -95 12 0 15 17 15 95 0 78 -3 95 -15 95
-12 0 -15 -17 -15 -95z"/>
<path d="M98 640 c-83 -22 -102 -29 -96 -36 7 -6 160 35 173 47 12 12 3 11
-77 -11z"/>
<path d="M98 609 c-21 -12 -24 -49 -6 -67 39 -39 100 17 63 58 -20 22 -32 24
-57 9z"/>
<path d="M938 43 c7 -3 16 -2 19 1 4 3 -2 6 -13 5 -11 0 -14 -3 -6 -6z"/>
</g>
</svg>
